<svg width="24" height="25" viewBox="0 0 24 25" fill="none" xmlns="http://www.w3.org/2000/svg">
<g id="File and Folder / download file">
<path id="Vector" d="M20 9.44C19.9896 9.34813 19.9695 9.25763 19.94 9.17V9.08C19.8919 8.97718 19.8278 8.88267 19.75 8.8L13.75 2.8C13.6673 2.72222 13.5728 2.65808 13.47 2.61H13.37C13.2728 2.558 13.1683 2.52092 13.06 2.5H7C6.20435 2.5 5.44129 2.81607 4.87868 3.37868C4.31607 3.94129 4 4.70435 4 5.5V19.5C4 20.2956 4.31607 21.0587 4.87868 21.6213C5.44129 22.1839 6.20435 22.5 7 22.5H17C17.7956 22.5 18.5587 22.1839 19.1213 21.6213C19.6839 21.0587 20 20.2956 20 19.5V9.5C20 9.5 20 9.5 20 9.44ZM14 5.91L16.59 8.5H15C14.7348 8.5 14.4804 8.39464 14.2929 8.20711C14.1054 8.01957 14 7.76522 14 7.5V5.91ZM18 19.5C18 19.7652 17.8946 20.0196 17.7071 20.2071C17.5196 20.3946 17.2652 20.5 17 20.5H7C6.73478 20.5 6.48043 20.3946 6.29289 20.2071C6.10536 20.0196 6 19.7652 6 19.5V5.5C6 5.23478 6.10536 4.98043 6.29289 4.79289C6.48043 4.60536 6.73478 4.5 7 4.5H12V7.5C12 8.29565 12.3161 9.05871 12.8787 9.62132C13.4413 10.1839 14.2044 10.5 15 10.5H18V19.5ZM13.29 14.79L13 15.09V12.5C13 12.2348 12.8946 11.9804 12.7071 11.7929C12.5196 11.6054 12.2652 11.5 12 11.5C11.7348 11.5 11.4804 11.6054 11.2929 11.7929C11.1054 11.9804 11 12.2348 11 12.5V15.09L10.71 14.79C10.5217 14.6017 10.2663 14.4959 10 14.4959C9.7337 14.4959 9.4783 14.6017 9.29 14.79C9.1017 14.9783 8.99591 15.2337 8.99591 15.5C8.99591 15.7663 9.1017 16.0217 9.29 16.21L11.29 18.21C11.3851 18.301 11.4972 18.3724 11.62 18.42C11.7397 18.4729 11.8691 18.5002 12 18.5002C12.1309 18.5002 12.2603 18.4729 12.38 18.42C12.5028 18.3724 12.6149 18.301 12.71 18.21L14.71 16.21C14.8983 16.0217 15.0041 15.7663 15.0041 15.5C15.0041 15.2337 14.8983 14.9783 14.71 14.79C14.5217 14.6017 14.2663 14.4959 14 14.4959C13.7337 14.4959 13.4783 14.6017 13.29 14.79Z" fill="#F3F3F3"/>
</g>
</svg>
